#
#
#

mtllib PUSHILIN_radio_tower.mtl


#
#  Mesh
#
g  Mesh


#
#  Mesh_None
#
usemtl  Mesh_None

v 0.000000 -2.176598 -0.224040
v -0.158420 -2.176598 -0.158420
v -0.081948 -1.834191 -0.081948
v 0.000000 -1.834191 -0.115892
v 0.224040 -2.176598 0.000000
v 0.158420 -2.176598 -0.158420
v 0.081948 -1.834191 -0.081948
v 0.115892 -1.834191 0.000000
v 0.158420 -2.176598 0.158420
v 0.081948 -1.834191 0.081948
v -0.158420 -2.176598 0.158420
v 0.000000 -2.176598 0.224040
v 0.000000 -1.834191 0.115892
v -0.081948 -1.834191 0.081948
v -0.224040 -2.176598 0.000000
v -0.115892 -1.834191 0.000000
v 0.000000 -1.025205 0.055296
v -0.039100 -1.025205 0.039100
v -0.055296 -1.025205 0.000000
v -0.039100 -1.025205 -0.039100
v 0.000000 -1.025205 -0.055296
v 0.039100 -1.025205 -0.039100
v 0.039100 -1.025205 0.039100
v 0.055296 -1.025205 0.000000
v 0.042254 0.126355 -0.042254
v 0.059755 0.126355 0.000000
v 0.042254 0.126355 0.042254
v 0.000000 0.126355 0.059755
v -0.042254 0.126355 0.042254
v -0.059755 0.126355 0.000000
v -0.042254 0.126355 -0.042254
v 0.000000 0.126355 -0.059755
v 0.200753 0.240842 0.200753
v 0.000000 0.240842 0.283908
v -0.200753 0.240842 0.200753
v -0.283908 0.240842 0.000000
v -0.200753 0.240842 -0.200753
v 0.000000 0.240842 -0.283908
v 0.200753 0.240842 -0.200753
v 0.283908 0.240842 0.000000
v 0.000000 0.291501 -0.283908
v 0.200753 0.291501 -0.200753
v 0.200753 0.291501 0.200753
v 0.000000 0.291501 0.283908
v -0.200753 0.291501 0.200753
v -0.283908 0.291501 0.000000
v -0.200753 0.291501 -0.200753
v 0.283908 0.291501 0.000000
v 0.262382 0.291501 0.000000
v 0.185532 0.291501 0.185532
v 0.000000 0.291501 0.262382
v -0.185532 0.291501 0.185532
v -0.262382 0.291501 0.000000
v -0.185532 0.291501 -0.185532
v 0.000000 0.291501 -0.262382
v 0.185532 0.291501 -0.185532
v -0.185532 0.398537 -0.185532
v 0.000000 0.398537 -0.262382
v 0.185532 0.398537 -0.185532
v 0.262382 0.398537 0.000000
v 0.185532 0.398537 0.185532
v 0.000000 0.398537 0.262382
v -0.185532 0.398537 0.185532
v -0.262382 0.398537 0.000000
v 0.203488 0.438220 0.203488
v 0.000000 0.438220 0.287776
v -0.203488 0.438220 0.203488
v -0.287775 0.438220 0.000000
v -0.203488 0.438220 -0.203488
v 0.000000 0.438220 -0.287776
v 0.203488 0.438220 -0.203488
v 0.287775 0.438220 0.000000
v 0.051858 0.546030 0.000000
v 0.036669 0.546030 0.036669
v 0.000000 0.546030 0.051858
v -0.036669 0.546030 0.036669
v -0.051858 0.546030 0.000000
v -0.036669 0.546030 -0.036669
v 0.000000 0.546030 -0.051858
v 0.036669 0.546030 -0.036669
v -0.158420 -2.281339 0.158420
v 0.000000 -2.281339 0.224040
v -0.158420 -2.281339 -0.158420
v -0.224040 -2.281339 0.000000
v 0.158420 -2.281339 -0.158420
v 0.000000 -2.281339 -0.224040
v 0.158420 -2.281339 0.158420
v 0.224040 -2.281339 0.000000
vn 0.000000 0.152879 -0.988245
vn -0.698795 0.152879 -0.698795
vn -0.694287 0.189558 -0.694287
vn -0.000000 0.189558 -0.981870
vn 0.988245 0.152879 0.000000
vn 0.698795 0.152879 -0.698795
vn 0.694287 0.189558 -0.694287
vn 0.981870 0.189558 0.000000
vn 0.698795 0.152879 0.698795
vn 0.694287 0.189558 0.694287
vn -0.698795 0.152879 0.698795
vn 0.000000 0.152879 0.988245
vn 0.000000 0.189558 0.981870
vn -0.694287 0.189558 0.694287
vn -0.988245 0.152879 0.000000
vn -0.981870 0.189558 -0.000000
vn 0.000000 0.189558 0.981870
vn 0.000000 0.035446 0.999372
vn -0.706662 0.035446 0.706662
vn -0.999372 0.035446 -0.000000
vn -0.706662 0.035446 -0.706662
vn -0.000000 0.189558 -0.981870
vn -0.000000 0.035446 -0.999372
vn 0.706662 0.035446 -0.706662
vn 0.706662 0.035446 0.706662
vn -0.694287 0.189558 0.694287
vn 0.000000 0.189558 -0.981870
vn 0.981870 0.189558 0.000000
vn 0.999372 0.035446 0.000000
vn 0.706662 0.035446 -0.706662
vn 0.595302 -0.539659 -0.595302
vn 0.841885 -0.539657 -0.000000
vn 0.706662 0.035446 0.706662
vn 0.595302 -0.539659 0.595302
vn -0.706662 0.035446 0.706662
vn 0.000000 0.035446 0.999372
vn 0.000000 -0.539657 0.841885
vn -0.595302 -0.539659 0.595302
vn -0.706662 0.035446 -0.706662
vn -0.999372 0.035446 -0.000000
vn -0.841885 -0.539657 0.000000
vn -0.595302 -0.539659 -0.595302
vn 0.706662 0.035446 -0.706662
vn 0.000000 0.035446 -0.999372
vn 0.000000 -0.539657 -0.841885
vn -0.706662 0.035446 0.706662
vn 0.595302 -0.539659 0.595302
vn 0.596009 -0.538096 0.596009
vn 0.000000 -0.538096 0.842884
vn -0.596009 -0.538096 0.596009
vn -0.842884 -0.538096 0.000000
vn -0.595302 -0.539659 -0.595302
vn -0.596009 -0.538096 -0.596009
vn 0.000000 -0.538096 -0.842884
vn 0.596009 -0.538096 -0.596009
vn 0.842884 -0.538096 -0.000000
vn 0.595302 -0.539659 0.595302
vn -0.595302 -0.539659 0.595302
vn -0.595302 -0.539659 -0.595302
vn 0.595302 -0.539659 -0.595302
vn 0.000000 0.734510 -0.678598
vn 0.479842 0.734509 -0.479842
vn 0.479842 0.734509 0.479842
vn 0.000000 0.734510 0.678598
vn -0.596009 -0.538096 0.596009
vn -0.479842 0.734509 0.479842
vn -0.678598 0.734510 -0.000000
vn -0.479842 0.734509 -0.479842
vn 0.596009 -0.538096 -0.596009
vn 0.678598 0.734510 0.000000
vn 0.596009 -0.538096 0.596009
vn -0.596009 -0.538096 -0.596009
vn 0.678598 0.734510 -0.000000
vn 0.678598 0.734510 0.000000
vn 0.479842 0.734509 0.479842
vn 0.000000 0.734510 0.678598
vn -0.479842 0.734509 0.479842
vn -0.678598 0.734510 0.000000
vn -0.678598 0.734510 0.000000
vn -0.479842 0.734509 -0.479842
vn 0.000000 0.734510 -0.678598
vn 0.479842 0.734509 -0.479842
vn -0.678598 0.734510 -0.000000
vn 0.678598 0.734510 0.000000
vn -0.678024 -0.283848 -0.678022
vn 0.000000 -0.283850 -0.958869
vn 0.678024 -0.283848 -0.678022
vn 0.958870 -0.283846 -0.000000
vn 0.678024 -0.283848 0.678022
vn -0.000000 -0.283850 0.958869
vn -0.678024 -0.283848 0.678022
vn -0.958870 -0.283846 0.000000
vn 0.678024 -0.283848 0.678022
vn 0.673165 0.306108 0.673162
vn -0.000000 0.306106 0.951997
vn -0.673165 0.306108 0.673162
vn -0.951996 0.306110 -0.000000
vn -0.678024 -0.283848 -0.678022
vn -0.673165 0.306108 -0.673162
vn 0.000000 0.306106 -0.951997
vn 0.673165 0.306108 -0.673162
vn 0.951996 0.306110 0.000000
vn -0.000000 -0.283850 0.958869
vn -0.958870 -0.283846 0.000000
vn 0.415639 0.909530 0.000000
vn 0.293901 0.909530 0.293900
vn -0.673165 0.306108 0.673162
vn -0.000000 0.306106 0.951997
vn 0.000000 0.909530 0.415638
vn -0.293901 0.909530 0.293900
vn -0.415639 0.909530 -0.000000
vn -0.293901 0.909530 -0.293900
vn 0.673165 0.306108 -0.673162
vn 0.000000 0.306106 -0.951997
vn 0.000000 0.909530 -0.415638
vn 0.293901 0.909530 -0.293900
vn -0.000000 0.306106 0.951997
vn -0.673165 0.306108 0.673162
vn 0.000000 0.306106 -0.951997
vn 0.673165 0.306108 -0.673162
vn 0.000000 0.152879 0.988245
vn -0.707107 0.000000 0.707107
vn 0.000000 0.000000 1.000000
vn -0.988245 0.152879 0.000000
vn -0.707107 0.000000 -0.707107
vn -1.000000 0.000000 0.000000
vn 0.000000 0.152879 -0.988245
vn 0.707107 0.000000 -0.707107
vn 0.000000 0.000000 -1.000000
vn 0.707107 0.000000 0.707107
vn 0.988245 0.152879 0.000000
vn 1.000000 0.000000 0.000000
vt 0.757200 0.596000
vt 0.814900 0.600900
vt 0.814900 0.765900
vt 0.785100 0.763400
vt 0.789700 0.016400
vt 0.847000 0.024200
vt 0.847000 0.187000
vt 0.817400 0.182900
vt 0.349400 0.189700
vt 0.431200 0.189700
vt 0.411400 0.351300
vt 0.369100 0.351300
vt 0.440700 0.189700
vt 0.522500 0.189700
vt 0.502800 0.351300
vt 0.460500 0.351300
vt 0.349400 0.016400
vt 0.431200 0.016400
vt 0.411400 0.180300
vt 0.369100 0.180300
vt 0.440700 0.016400
vt 0.522500 0.016400
vt 0.502800 0.178000
vt 0.460500 0.178000
vt 0.847000 0.359200
vt 0.789700 0.367000
vt 0.817400 0.200500
vt 0.847000 0.196400
vt 0.747700 0.761000
vt 0.690000 0.765900
vt 0.717800 0.598500
vt 0.747700 0.596000
vt 0.214400 0.399400
vt 0.172000 0.399400
vt 0.183100 0.016400
vt 0.203300 0.016400
vt 0.058800 0.400500
vt 0.016500 0.400500
vt 0.027500 0.016400
vt 0.047700 0.016400
vt 0.162500 0.399400
vt 0.120200 0.399400
vt 0.131200 0.016400
vt 0.151400 0.016400
vt 0.650400 0.018900
vt 0.680200 0.016400
vt 0.680200 0.400600
vt 0.666000 0.401800
vt 0.532100 0.016400
vt 0.562000 0.016400
vt 0.548700 0.400700
vt 0.534400 0.400700
vt 0.571600 0.016400
vt 0.601500 0.016400
vt 0.599200 0.400700
vt 0.584900 0.400700
vt 0.640900 0.401800
vt 0.611100 0.399300
vt 0.626700 0.016400
vt 0.640900 0.017600
vt 0.110600 0.399400
vt 0.068300 0.399400
vt 0.079400 0.016400
vt 0.099600 0.016400
vt 0.690900 0.016600
vt 0.705200 0.016400
vt 0.705200 0.562200
vt 0.689800 0.562400
vt 0.287500 0.016400
vt 0.307600 0.016400
vt 0.308500 0.562200
vt 0.286600 0.562200
vt 0.244900 0.562200
vt 0.224700 0.562200
vt 0.223900 0.016400
vt 0.245700 0.016400
vt 0.318800 0.016400
vt 0.339000 0.016400
vt 0.339800 0.561800
vt 0.318000 0.561800
vt 0.276300 0.562200
vt 0.256100 0.562200
vt 0.255300 0.016400
vt 0.277100 0.016400
vt 0.755200 0.562400
vt 0.740900 0.562200
vt 0.739700 0.016400
vt 0.755200 0.016600
vt 0.780100 0.562400
vt 0.765900 0.562200
vt 0.764700 0.016400
vt 0.780100 0.016600
vt 0.715900 0.016600
vt 0.730200 0.016400
vt 0.730200 0.562200
vt 0.714800 0.562400
vt 0.306300 0.783700
vt 0.288000 0.783700
vt 0.223900 0.685600
vt 0.310900 0.685600
vt 0.462600 0.423100
vt 0.462600 0.401400
vt 0.515900 0.360800
vt 0.515900 0.463800
vt 0.413400 0.709900
vt 0.431700 0.709900
vt 0.436400 0.808000
vt 0.349400 0.808000
vt 0.412100 0.472700
vt 0.390300 0.472700
vt 0.349400 0.360800
vt 0.453000 0.360800
vt 0.610900 0.474700
vt 0.631100 0.474700
vt 0.672200 0.586500
vt 0.576400 0.586500
vt 0.530000 0.712800
vt 0.530000 0.732800
vt 0.462900 0.805000
vt 0.462900 0.709900
vt 0.539600 0.732800
vt 0.539600 0.712800
vt 0.606700 0.709900
vt 0.606700 0.805000
vt 0.109400 0.636600
vt 0.129500 0.636600
vt 0.164000 0.748500
vt 0.068300 0.748500
vt 0.433000 0.817500
vt 0.433000 0.920500
vt 0.408900 0.920500
vt 0.408900 0.817500
vt 0.749500 0.939300
vt 0.749500 0.866500
vt 0.773700 0.866100
vt 0.773700 0.938900
vt 0.874800 0.866100
vt 0.874800 0.938900
vt 0.850600 0.939300
vt 0.850600 0.866500
vt 0.841100 0.866500
vt 0.841100 0.939300
vt 0.816900 0.938900
vt 0.816900 0.866100
vt 0.783200 0.939300
vt 0.783200 0.866500
vt 0.807400 0.866100
vt 0.807400 0.938900
vt 0.937700 0.738200
vt 0.937700 0.841200
vt 0.913500 0.841200
vt 0.913500 0.738200
vt 0.937700 0.016400
vt 0.937700 0.119400
vt 0.913500 0.119400
vt 0.913500 0.016400
vt 0.937700 0.128900
vt 0.937700 0.231900
vt 0.913500 0.231900
vt 0.913500 0.128900
vt 0.326100 0.973700
vt 0.326100 0.870700
vt 0.335600 0.874600
vt 0.335600 0.969800
vt 0.281300 0.973700
vt 0.281300 0.870700
vt 0.290800 0.874600
vt 0.290800 0.969800
vt 0.947200 0.119400
vt 0.947200 0.016400
vt 0.956700 0.020300
vt 0.956700 0.115500
vt 0.885000 0.983400
vt 0.885000 0.880400
vt 0.894500 0.884300
vt 0.894500 0.979500
vt 0.309900 0.870700
vt 0.309900 0.973700
vt 0.300400 0.969800
vt 0.300400 0.874600
vt 0.975700 0.016400
vt 0.975700 0.119400
vt 0.966300 0.115500
vt 0.966300 0.020300
vt 0.947200 0.983600
vt 0.947200 0.880600
vt 0.956700 0.884500
vt 0.956700 0.979700
vt 0.442600 0.920500
vt 0.442600 0.817500
vt 0.452100 0.821400
vt 0.452100 0.916600
vt 0.875500 0.596800
vt 0.875500 0.664100
vt 0.824400 0.663300
vt 0.824400 0.596000
vt 0.875500 0.674300
vt 0.875500 0.741600
vt 0.824400 0.740900
vt 0.824400 0.673600
vt 0.840800 0.376400
vt 0.840800 0.471600
vt 0.789700 0.471600
vt 0.789700 0.376400
vt 0.616200 0.805100
vt 0.616200 0.709900
vt 0.667300 0.709900
vt 0.667300 0.805100
vt 0.119400 0.758000
vt 0.119400 0.853100
vt 0.068300 0.853100
vt 0.068300 0.758000
vt 0.789700 0.576300
vt 0.789700 0.481100
vt 0.840800 0.481100
vt 0.840800 0.576300
vt 0.275000 0.794000
vt 0.275000 0.861300
vt 0.223900 0.860500
vt 0.223900 0.793200
vt 0.335600 0.793200
vt 0.335600 0.860500
vt 0.284500 0.861300
vt 0.284500 0.794000
vt 0.243100 0.870700
vt 0.243100 0.938100
vt 0.223900 0.948900
vt 0.223900 0.875100
vt 0.339700 0.696400
vt 0.339700 0.763700
vt 0.320500 0.759400
vt 0.320500 0.685600
vt 0.271800 0.870700
vt 0.271800 0.938100
vt 0.252600 0.948900
vt 0.252600 0.875100
vt 0.913500 0.341100
vt 0.913500 0.246000
vt 0.933200 0.241400
vt 0.933200 0.345800
vt 0.068300 0.962400
vt 0.068300 0.867200
vt 0.087400 0.862600
vt 0.087400 0.967000
vt 0.709100 0.870700
vt 0.709100 0.965900
vt 0.690000 0.970500
vt 0.690000 0.866100
vt 0.718600 0.965900
vt 0.718600 0.870700
vt 0.737200 0.866100
vt 0.737200 0.970500
vt 0.116100 0.867200
vt 0.116100 0.962400
vt 0.097000 0.967000
vt 0.097000 0.862600
vt 0.453400 0.482100
vt 0.453400 0.586500
vt 0.349400 0.543700
vt 0.349400 0.524900
vt 0.068300 0.513300
vt 0.068300 0.408900
vt 0.172300 0.451700
vt 0.172300 0.470500
vt 0.680400 0.596000
vt 0.680400 0.700400
vt 0.576400 0.657600
vt 0.576400 0.638800
vt 0.172300 0.522800
vt 0.172300 0.627200
vt 0.068300 0.584400
vt 0.068300 0.565600
vt 0.349400 0.700400
vt 0.349400 0.596000
vt 0.453400 0.638800
vt 0.453400 0.657600
vt 0.327900 0.571700
vt 0.327900 0.676100
vt 0.223900 0.633300
vt 0.223900 0.614500
vt 0.566900 0.596000
vt 0.566900 0.700400
vt 0.462900 0.657600
vt 0.462900 0.638800
vt 0.566900 0.482100
vt 0.566900 0.586500
vt 0.462900 0.543700
vt 0.462900 0.524900
vt 0.690000 0.856600
vt 0.690000 0.775400
vt 0.740000 0.775400
vt 0.740000 0.856600
vt 0.816700 0.856600
vt 0.816700 0.775400
vt 0.866700 0.775400
vt 0.866700 0.856600
vt 0.178900 0.758000
vt 0.178900 0.839200
vt 0.128900 0.839200
vt 0.128900 0.758000
vt 0.539600 0.871900
vt 0.539600 0.814500
vt 0.589500 0.815200
vt 0.589500 0.872700
vt 0.512900 0.814500
vt 0.512900 0.871900
vt 0.462900 0.872700
vt 0.462900 0.815200
vt 0.399300 0.818300
vt 0.399300 0.875700
vt 0.349400 0.875000
vt 0.349400 0.817500
vt 0.616200 0.872800
vt 0.616200 0.815300
vt 0.666200 0.814600
vt 0.666200 0.872000
vt 0.757200 0.856600
vt 0.757200 0.775400
vt 0.807200 0.775400
vt 0.807200 0.856600
f 1/1/1 2/2/2 3/3/3 4/4/4
f 5/5/5 6/6/6 7/7/7 8/8/8
f 9/9/9 5/10/5 8/11/8 10/12/10
f 11/13/11 12/14/12 13/15/13 14/16/14
f 2/17/2 15/18/15 16/19/16 3/20/3
f 6/21/6 1/22/1 4/23/4 7/24/7
f 12/25/12 9/26/9 10/27/10 13/28/13
f 15/29/15 11/30/11 14/31/14 16/32/16
f 14/33/14 13/34/17 17/35/18 18/36/19
f 3/37/3 16/38/16 19/39/20 20/40/21
f 7/41/7 4/42/22 21/43/23 22/44/24
f 13/45/17 10/46/10 23/47/25 17/48/18
f 16/49/16 14/50/26 18/51/19 19/52/20
f 4/53/27 3/54/3 20/55/21 21/56/23
f 8/57/28 7/58/7 22/59/24 24/60/29
f 10/61/10 8/62/8 24/63/29 23/64/25
f 24/65/29 22/66/30 25/67/31 26/68/32
f 23/69/33 24/70/29 26/71/32 27/72/34
f 18/73/35 17/74/36 28/75/37 29/76/38
f 20/77/39 19/78/40 30/79/41 31/80/42
f 22/81/43 21/82/44 32/83/45 25/84/31
f 17/85/18 23/86/33 27/87/34 28/88/37
f 19/89/20 18/90/46 29/91/38 30/92/41
f 21/93/23 20/94/39 31/95/42 32/96/45
f 28/97/37 27/98/47 33/99/48 34/100/49
f 30/101/41 29/102/38 35/103/50 36/104/51
f 32/105/45 31/106/52 37/107/53 38/108/54
f 26/109/32 25/110/31 39/111/55 40/112/56
f 27/113/57 26/114/32 40/115/56 33/116/48
f 29/117/58 28/118/37 34/119/49 35/120/50
f 31/121/59 30/122/41 36/123/51 37/124/53
f 25/125/60 32/126/45 38/127/54 39/128/55
f 39/129/55 38/130/54 41/131/61 42/132/62
f 34/133/49 33/134/48 43/135/63 44/136/64
f 36/137/51 35/138/65 45/139/66 46/140/67
f 38/141/54 37/142/53 47/143/68 41/144/61
f 40/145/56 39/146/69 42/147/62 48/148/70
f 33/149/71 40/150/56 48/151/70 43/152/63
f 35/153/50 34/154/49 44/155/64 45/156/66
f 37/157/72 36/158/51 46/159/67 47/160/68
f 43/161/63 48/162/73 49/163/74 50/164/75
f 45/165/66 44/166/64 51/167/76 52/168/77
f 47/169/68 46/170/78 53/171/79 54/172/80
f 42/173/62 41/174/61 55/175/81 56/176/82
f 44/177/64 43/178/63 50/179/75 51/180/76
f 46/181/83 45/182/66 52/183/77 53/184/79
f 41/185/61 47/186/68 54/187/80 55/188/81
f 48/189/84 42/190/62 56/191/82 49/192/74
f 55/193/81 54/194/80 57/195/85 58/196/86
f 49/197/74 56/198/82 59/199/87 60/200/88
f 50/201/75 49/202/74 60/203/88 61/204/89
f 52/205/77 51/206/76 62/207/90 63/208/91
f 54/209/80 53/210/79 64/211/92 57/212/85
f 56/213/82 55/214/81 58/215/86 59/216/87
f 51/217/76 50/218/75 61/219/89 62/220/90
f 53/221/79 52/222/77 63/223/91 64/224/92
f 62/225/90 61/226/93 65/227/94 66/228/95
f 64/229/92 63/230/91 67/231/96 68/232/97
f 58/233/86 57/234/98 69/235/99 70/236/100
f 60/237/88 59/238/87 71/239/101 72/240/102
f 61/241/89 60/242/88 72/243/102 65/244/94
f 63/245/91 62/246/103 66/247/95 67/248/96
f 57/249/85 64/250/104 68/251/97 69/252/99
f 59/253/87 58/254/86 70/255/100 71/256/101
f 65/257/94 72/258/102 73/259/105 74/260/106
f 67/261/107 66/262/108 75/263/109 76/264/110
f 69/265/99 68/266/97 77/267/111 78/268/112
f 71/269/113 70/270/114 79/271/115 80/272/116
f 66/273/117 65/274/94 74/275/106 75/276/109
f 68/277/97 67/278/118 76/279/110 77/280/111
f 70/281/119 69/282/99 78/283/112 79/284/115
f 72/285/102 71/286/120 80/287/116 73/288/105
f 12/289/121 11/290/11 81/291/122 82/292/123
f 15/293/124 2/294/2 83/295/125 84/296/126
f 1/297/127 6/298/6 85/299/128 86/300/129
f 9/301/9 12/302/121 82/303/123 87/304/130
f 11/305/11 15/306/15 84/307/126 81/308/122
f 2/309/2 1/310/127 86/311/129 83/312/125
f 6/313/6 5/314/131 88/315/132 85/316/128
f 5/317/5 9/318/9 87/319/130 88/320/132
